<svg xmlns="http://www.w3.org/2000/svg" xmlns:xlink="http://www.w3.org/1999/xlink" width="1046pt" height="89pt" viewBox="0 0 1045.76 88.79"><g id="graph0" class="graph" transform="scale(1 1) rotate(0) translate(4 84.7935)"><title>simple_conversion</title><polygon fill="#fff" stroke="none" points="-4 4 -4 -84.793 1041.76 -84.793 1041.76 4 -4 4"/><g id="node1" class="node"><title>setup</title><polygon fill="none" stroke="#000" points="41.362 -58.397 .137 -40.397 41.362 -22.397 82.587 -40.397 41.362 -58.397"/><text x="41.362" y="-36.697" font-family="Times,serif" font-size="14" text-anchor="middle">setup</text></g><g id="node3" class="node"><title>input</title><polygon fill="none" stroke="#000" points="166.724 -58.397 118.724 -58.397 118.724 -22.397 172.724 -22.397 172.724 -52.397 166.724 -58.397"/><polyline fill="none" stroke="#000" points="166.724 -58.397 166.724 -52.397"/><polyline fill="none" stroke="#000" points="172.724 -52.397 166.724 -52.397"/><text x="145.724" y="-36.697" font-family="Times,serif" font-size="14" text-anchor="middle">input</text></g><g id="edge1" class="edge"><title>setup-&gt;input</title><path fill="none" stroke="#000" d="M82.8183,-40.3968C91.3055,-40.3968 100.205,-40.3968 108.525,-40.3968"/><polygon fill="#000" stroke="#000" points="108.679 -43.897 118.679 -40.397 108.679 -36.897 108.679 -43.897"/></g><g id="node2" class="node"><title>cleanup</title><polygon fill="none" stroke="#000" points="983.531 -58.397 929.07 -40.397 983.531 -22.397 1037.99 -40.397 983.531 -58.397"/><text x="983.531" y="-36.697" font-family="Times,serif" font-size="14" text-anchor="middle">cleanup</text></g><g id="node6" class="node"><title>pre_1</title><ellipse cx="230.822" cy="-40.397" fill="none" stroke="#000" rx="22.197" ry="22.197"/><text x="221.822" y="-36.697" font-family="Times,serif" font-size="14" text-anchor="start">pre</text></g><g id="edge2" class="edge"><title>input-&gt;pre_1</title><path fill="none" stroke="#000" d="M173.017,-40.3968C181.108,-40.3968 190.095,-40.3968 198.489,-40.3968"/><polygon fill="#000" stroke="#000" points="198.692 -43.897 208.692 -40.397 198.692 -36.897 198.692 -43.897"/></g><g id="node4" class="node"><title>output</title><polygon fill="none" stroke="#000" points="887.301 -58.397 839.301 -58.397 839.301 -22.397 893.301 -22.397 893.301 -52.397 887.301 -58.397"/><polyline fill="none" stroke="#000" points="887.301 -58.397 887.301 -52.397"/><polyline fill="none" stroke="#000" points="893.301 -52.397 887.301 -52.397"/><text x="866.301" y="-36.697" font-family="Times,serif" font-size="14" text-anchor="middle">output</text></g><g id="edge10" class="edge"><title>output-&gt;cleanup</title><path fill="none" stroke="#000" d="M893.448,-40.3968C901.168,-40.3968 909.974,-40.3968 918.976,-40.3968"/><polygon fill="#000" stroke="#000" points="919.175 -43.897 929.175 -40.397 919.175 -36.897 919.175 -43.897"/></g><g id="node5" class="node"><title>pandoc</title><ellipse cx="499.513" cy="-40.397" fill="none" stroke="#000" rx="36.304" ry="36.304"/><ellipse cx="499.513" cy="-40.397" fill="none" stroke="#000" rx="40.294" ry="40.294"/><text x="499.513" y="-36.697" font-family="Times,serif" font-size="14" text-anchor="middle">pandoc</text></g><g id="node8" class="node"><title>post_1</title><ellipse cx="601.258" cy="-40.397" fill="none" stroke="#000" rx="25.196" ry="25.196"/><text x="589.758" y="-36.697" font-family="Times,serif" font-size="14" text-anchor="start">post</text></g><g id="edge6" class="edge"><title>pandoc-&gt;post_1</title><path fill="none" stroke="#000" d="M539.935,-40.3968C548.435,-40.3968 557.359,-40.3968 565.658,-40.3968"/><polygon fill="#000" stroke="#000" points="565.758 -43.897 575.758 -40.397 565.758 -36.897 565.758 -43.897"/></g><g id="node10" class="node"><title>dots1</title><text x="315.92" y="-36.697" font-family="Times,serif" font-size="14" text-anchor="middle">...</text></g><g id="edge3" class="edge"><title>pre_1-&gt;dots1</title><path fill="none" stroke="#000" d="M253.222,-40.3968C261.033,-40.3968 270.098,-40.3968 278.836,-40.3968"/><polygon fill="#000" stroke="#000" points="278.847 -43.897 288.847 -40.397 278.847 -36.897 278.847 -43.897"/></g><g id="node7" class="node"><title>pre_N</title><ellipse cx="401.018" cy="-40.397" fill="none" stroke="#000" rx="22.197" ry="22.197"/><text x="392.018" y="-36.697" font-family="Times,serif" font-size="14" text-anchor="start">pre</text></g><g id="edge5" class="edge"><title>pre_N-&gt;pandoc</title><path fill="none" stroke="#000" d="M423.434,-40.3968C431.018,-40.3968 439.899,-40.3968 448.845,-40.3968"/><polygon fill="#000" stroke="#000" points="448.908 -43.897 458.908 -40.397 448.908 -36.897 448.908 -43.897"/></g><g id="node11" class="node"><title>dots2</title><text x="689.605" y="-36.697" font-family="Times,serif" font-size="14" text-anchor="middle">...</text></g><g id="edge7" class="edge"><title>post_1-&gt;dots2</title><path fill="none" stroke="#000" d="M626.77,-40.3968C634.711,-40.3968 643.694,-40.3968 652.302,-40.3968"/><polygon fill="#000" stroke="#000" points="652.523 -43.897 662.522 -40.397 652.522 -36.897 652.523 -43.897"/></g><g id="node9" class="node"><title>post_M</title><ellipse cx="777.953" cy="-40.397" fill="none" stroke="#000" rx="25.196" ry="25.196"/><text x="766.453" y="-36.697" font-family="Times,serif" font-size="14" text-anchor="start">post</text></g><g id="edge9" class="edge"><title>post_M-&gt;output</title><path fill="none" stroke="#000" d="M803.466,-40.3968C811.406,-40.3968 820.389,-40.3968 828.998,-40.3968"/><polygon fill="#000" stroke="#000" points="829.218 -43.897 839.218 -40.397 829.218 -36.897 829.218 -43.897"/></g><g id="edge4" class="edge"><title>dots1-&gt;pre_N</title><path fill="none" stroke="#000" d="M343.213,-40.3968C351.304,-40.3968 360.291,-40.3968 368.685,-40.3968"/><polygon fill="#000" stroke="#000" points="368.888 -43.897 378.888 -40.397 368.888 -36.897 368.888 -43.897"/></g><g id="edge8" class="edge"><title>dots2-&gt;post_M</title><path fill="none" stroke="#000" d="M716.982,-40.3968C725.021,-40.3968 733.981,-40.3968 742.473,-40.3968"/><polygon fill="#000" stroke="#000" points="742.505 -43.897 752.505 -40.397 742.505 -36.897 742.505 -43.897"/></g></g></svg>