<svg xmlns="http://www.w3.org/2000/svg" xmlns:xlink="http://www.w3.org/1999/xlink" width="1044" height="89pt" viewBox="0 0 782.58 88.79"><g id="graph0" class="graph" transform="scale(1 1) rotate(0) translate(4 84.7935)"><title>simple_conversion</title><polygon fill="#fff" stroke="none" points="-4 4 -4 -84.793 778.577 -84.793 778.577 4 -4 4"/><g id="node1" class="node"><title>input</title><polygon fill="none" stroke="#000" points="48 -58.397 0 -58.397 0 -22.397 54 -22.397 54 -52.397 48 -58.397"/><polyline fill="none" stroke="#000" points="48 -58.397 48 -52.397"/><polyline fill="none" stroke="#000" points="54 -52.397 48 -52.397"/><text x="27" y="-36.697" font-family="Times,serif" font-size="14" text-anchor="middle">input</text></g><g id="node4" class="node"><title>pre_1</title><ellipse cx="112.098" cy="-40.397" fill="none" stroke="#000" rx="22.197" ry="22.197"/><text x="103.098" y="-36.697" font-family="Times,serif" font-size="14" text-anchor="start">pre</text></g><g id="edge1" class="edge"><title>input-&gt;pre_1</title><path fill="none" stroke="#000" d="M54.2927,-40.3968C62.3835,-40.3968 71.3706,-40.3968 79.7646,-40.3968"/><polygon fill="#000" stroke="#000" points="79.968 -43.897 89.968 -40.397 79.968 -36.897 79.968 -43.897"/></g><g id="node2" class="node"><title>output</title><polygon fill="none" stroke="#000" points="768.577 -58.397 720.577 -58.397 720.577 -22.397 774.577 -22.397 774.577 -52.397 768.577 -58.397"/><polyline fill="none" stroke="#000" points="768.577 -58.397 768.577 -52.397"/><polyline fill="none" stroke="#000" points="774.577 -52.397 768.577 -52.397"/><text x="747.577" y="-36.697" font-family="Times,serif" font-size="14" text-anchor="middle">output</text></g><g id="node3" class="node"><title>pandoc</title><ellipse cx="380.789" cy="-40.397" fill="none" stroke="#000" rx="36.304" ry="36.304"/><ellipse cx="380.789" cy="-40.397" fill="none" stroke="#000" rx="40.294" ry="40.294"/><text x="380.789" y="-36.697" font-family="Times,serif" font-size="14" text-anchor="middle">pandoc</text></g><g id="node6" class="node"><title>post_1</title><ellipse cx="482.533" cy="-40.397" fill="none" stroke="#000" rx="25.196" ry="25.196"/><text x="471.033" y="-36.697" font-family="Times,serif" font-size="14" text-anchor="start">post</text></g><g id="edge5" class="edge"><title>pandoc-&gt;post_1</title><path fill="none" stroke="#000" d="M421.211,-40.3968C429.71,-40.3968 438.634,-40.3968 446.934,-40.3968"/><polygon fill="#000" stroke="#000" points="447.033 -43.897 457.033 -40.397 447.033 -36.897 447.033 -43.897"/></g><g id="node8" class="node"><title>dots1</title><text x="197.196" y="-36.697" font-family="Times,serif" font-size="14" text-anchor="middle">...</text></g><g id="edge2" class="edge"><title>pre_1-&gt;dots1</title><path fill="none" stroke="#000" d="M134.498,-40.3968C142.309,-40.3968 151.374,-40.3968 160.111,-40.3968"/><polygon fill="#000" stroke="#000" points="160.122 -43.897 170.122 -40.397 160.122 -36.897 160.122 -43.897"/></g><g id="node5" class="node"><title>pre_N</title><ellipse cx="282.294" cy="-40.397" fill="none" stroke="#000" rx="22.197" ry="22.197"/><text x="273.294" y="-36.697" font-family="Times,serif" font-size="14" text-anchor="start">pre</text></g><g id="edge4" class="edge"><title>pre_N-&gt;pandoc</title><path fill="none" stroke="#000" d="M304.709,-40.3968C312.294,-40.3968 321.175,-40.3968 330.121,-40.3968"/><polygon fill="#000" stroke="#000" points="330.184 -43.897 340.184 -40.397 330.184 -36.897 330.184 -43.897"/></g><g id="node9" class="node"><title>dots2</title><text x="570.881" y="-36.697" font-family="Times,serif" font-size="14" text-anchor="middle">...</text></g><g id="edge6" class="edge"><title>post_1-&gt;dots2</title><path fill="none" stroke="#000" d="M508.046,-40.3968C515.986,-40.3968 524.969,-40.3968 533.578,-40.3968"/><polygon fill="#000" stroke="#000" points="533.798 -43.897 543.798 -40.397 533.798 -36.897 533.798 -43.897"/></g><g id="node7" class="node"><title>post_M</title><ellipse cx="659.229" cy="-40.397" fill="none" stroke="#000" rx="25.196" ry="25.196"/><text x="647.729" y="-36.697" font-family="Times,serif" font-size="14" text-anchor="start">post</text></g><g id="edge8" class="edge"><title>post_M-&gt;output</title><path fill="none" stroke="#000" d="M684.742,-40.3968C692.682,-40.3968 701.665,-40.3968 710.274,-40.3968"/><polygon fill="#000" stroke="#000" points="710.494 -43.897 720.494 -40.397 710.494 -36.897 710.494 -43.897"/></g><g id="edge3" class="edge"><title>dots1-&gt;pre_N</title><path fill="none" stroke="#000" d="M224.489,-40.3968C232.58,-40.3968 241.567,-40.3968 249.961,-40.3968"/><polygon fill="#000" stroke="#000" points="250.164 -43.897 260.164 -40.397 250.164 -36.897 250.164 -43.897"/></g><g id="edge7" class="edge"><title>dots2-&gt;post_M</title><path fill="none" stroke="#000" d="M598.258,-40.3968C606.297,-40.3968 615.257,-40.3968 623.748,-40.3968"/><polygon fill="#000" stroke="#000" points="623.781 -43.897 633.781 -40.397 623.781 -36.897 623.781 -43.897"/></g></g></svg>